# xmcd
#
# Track frame offsets:
#	150
#	16146
#	31880
#	50585
#	65129
#	83796
#	96165
#	111091
#	123425
#	137338
#
# Disc length: 2007 seconds
# Revision: 0
# Processed by: cddbd v1.5.2PL0 Copyright (c) Steve Scherf et al.
# Submitted via: dBpowerAMP V12.0
#
DISCID=7e07d50a
DTITLE=Tomi Leino Trio - Hip Shootin'
DYEAR=2016
DGENRE=Blues
TTITLE0=Up The Line
TTITLE1=Elaine
TTITLE2=I've Got to be With You Tonight
TTITLE3=Rough Ride Woman
TTITLE4=Hip Shooter
TTITLE5=No More
TTITLE6=Can't Stop Loving You
TTITLE7=(I Wanna) Play a Little While
TTITLE8=Can't Stand to See You go
TTITLE9=Jelly Roll King
EXTD=
EXTT0=
EXTT1=
EXTT2=
EXTT3=
EXTT4=
EXTT5=
EXTT6=
EXTT7=
EXTT8=
EXTT9=
PLAYORDER=
